<svg width="0" height="0" class="hidden">
  <symbol xmlns="http://www.w3.org/2000/svg" fill="#e3e3e3" viewBox="0 -960 960 960" id="location_on">
    <path d="M480-480q33 0 56.5-23.5T560-560q0-33-23.5-56.5T480-640q-33 0-56.5 23.5T400-560q0 33 23.5 56.5T480-480Zm0 294q122-112 181-203.5T720-552q0-109-69.5-178.5T480-800q-101 0-170.5 69.5T240-552q0 71 59 162.5T480-186Zm0 106Q319-217 239.5-334.5T160-552q0-150 96.5-239T480-880q127 0 223.5 89T800-552q0 100-79.5 217.5T480-80Zm0-480Z"></path>
  </symbol>
  <symbol id="search" xmlns="http://www.w3.org/2000/svg" viewBox="0 0 21.8 23.8">
    <defs></defs>
    <path d="M11,17.9a8.7,8.7,0,0,0,.8,4.8,1,1,0,0,0,1.2.4.8.8,0,0,0,.4-1.2,8.3,8.3,0,0,1-.7-3.8,7.6,7.6,0,0,1,15.2,1.1A7.7,7.7,0,0,1,16.1,25a.8.8,0,0,0-1.2.2.9.9,0,0,0,.2,1.3A10,10,0,0,0,19.6,28a9.3,9.3,0,0,0,6.1-1.7l5.5,6.4a.9.9,0,0,0,.6.3.7.7,0,0,0,.7-.2.9.9,0,0,0,.1-1.2L27,25.2a8.9,8.9,0,0,0,2.6-5.8A9.3,9.3,0,1,0,11,17.9Z" transform="translate(-10.9 -9.3)"></path>
  </symbol>
  <symbol xmlns="http://www.w3.org/2000/svg" fill="#e3e3e3" viewBox="0 -960 960 960" id="water_drop">
    <path d="M491-200q12-1 20.5-9.5T520-230q0-14-9-22.5t-23-7.5q-41 3-87-22.5T343-375q-2-11-10.5-18t-19.5-7q-14 0-23 10.5t-6 24.5q17 91 80 130t127 35ZM480-80q-137 0-228.5-94T160-408q0-100 79.5-217.5T480-880q161 137 240.5 254.5T800-408q0 140-91.5 234T480-80Zm0-80q104 0 172-70.5T720-408q0-73-60.5-165T480-774Q361-665 300.5-573T240-408q0 107 68 177.5T480-160Zm0-320Z"></path>
  </symbol>
  <symbol xmlns="http://www.w3.org/2000/svg" fill="#e3e3e3" viewBox="0 -960 960 960" id="air">
    <path d="M460-160q-50 0-85-35t-35-85h80q0 17 11.5 28.5T460-240q17 0 28.5-11.5T500-280q0-17-11.5-28.5T460-320H80v-80h380q50 0 85 35t35 85q0 50-35 85t-85 35ZM80-560v-80h540q26 0 43-17t17-43q0-26-17-43t-43-17q-26 0-43 17t-17 43h-80q0-59 40.5-99.5T620-840q59 0 99.5 40.5T760-700q0 59-40.5 99.5T620-560H80Zm660 320v-80q26 0 43-17t17-43q0-26-17-43t-43-17H80v-80h660q59 0 99.5 40.5T880-380q0 59-40.5 99.5T740-240Z"></path>
  </symbol>
  <symbol fill="none" xmlns="http://www.w3.org/2000/svg" viewBox="0 0 100 100" id="drizzle">
    <g clip-path="url(#clip0_186_6)">
      <path fill-rule="evenodd" clip-rule="evenodd" d="M31.1531 69.1921C31.1531 69.1921 28.3649 77.0071 29.097 80.0043C29.702 82.4841 32.1811 84.0187 34.6274 83.4271C37.0824 82.8334 38.5707 80.3361 37.9657 77.8584C37.2336 74.8591 31.1531 69.1921 31.1531 69.1921Z" fill="#38A1E8"></path>
      <path fill-rule="evenodd" clip-rule="evenodd" d="M48.7439 68.958C48.7439 68.958 45.9557 76.773 46.6878 79.7723C47.2928 82.25 49.7719 83.7846 52.2181 83.193C54.6731 82.5992 56.1615 80.102 55.5565 77.6243C54.8244 74.6249 48.7439 68.958 48.7439 68.958Z" fill="#38A1E8"></path>
      <path fill-rule="evenodd" clip-rule="evenodd" d="M67.0227 68.7151C67.0227 68.7151 64.2345 76.53 64.9666 79.5272C65.5716 82.0071 68.0507 83.5417 70.4969 82.9501C72.9519 82.3563 74.4403 79.859 73.8331 77.3814C73.101 74.382 67.0227 68.7151 67.0227 68.7151Z" fill="#38A1E8"></path>
      <path fill-rule="evenodd" clip-rule="evenodd" d="M20.6474 38.0252C13.6748 38.0252 7.99979 43.7314 7.99979 50.7474C7.99979 57.759 13.6748 63.4674 20.6474 63.4674H75.6373C84.392 63.4674 91.5116 56.303 91.5116 47.497C91.5116 38.691 84.392 31.5266 75.6373 31.5266C74.0087 31.5266 72.3888 31.7798 70.8281 32.2753L69.8111 32.6006L69.4516 31.5877C66.0913 22.0831 57.1086 15.698 47.1023 15.698C34.8689 15.698 24.7157 24.9188 23.4838 37.1455L23.3699 38.2784L22.2476 38.1387C21.6251 38.0601 21.1165 38.0252 20.6474 38.0252Z" fill="white"></path>
    </g>
    <defs>
      <clipPath id="clip0_186_6">
        <rect width="84" height="69" fill="white" transform="translate(8 15)"></rect>
      </clipPath>
    </defs>
  </symbol>
  <symbol fill="none" xmlns="http://www.w3.org/2000/svg" viewBox="0 0 100 100" id="thunderstorm">
    <g clip-path="url(#clip0_186_23)">
      <path fill-rule="evenodd" clip-rule="evenodd" d="M62.9447 60.2432C62.9447 60.2432 60.2 67.7157 60.8936 70.5759C61.4681 72.9374 63.8638 74.3889 66.2383 73.8113C68.6191 73.2316 70.0745 70.8402 69.5021 68.4787C68.8085 65.6205 62.9447 60.2432 62.9447 60.2432Z" fill="#38A1E8"></path>
      <path fill-rule="evenodd" clip-rule="evenodd" d="M79.9981 59.9265C79.9981 59.9265 77.2534 67.399 77.947 70.2571C78.5215 72.6208 80.9172 74.0722 83.2917 73.4946C85.6725 72.9149 87.1279 70.5236 86.5555 68.162C85.8619 65.3039 79.9981 59.9265 79.9981 59.9265Z" fill="#38A1E8"></path>
      <path fill-rule="evenodd" clip-rule="evenodd" d="M14.3849 61.2007C14.3849 61.2007 11.6402 68.6732 12.3338 71.5313C12.9083 73.895 15.304 75.3464 17.6785 74.7688C20.0594 74.1891 21.5147 71.7977 20.9423 69.4362C20.2487 66.5781 14.3849 61.2007 14.3849 61.2007Z" fill="#38A1E8"></path>
      <path fill-rule="evenodd" clip-rule="evenodd" d="M26.2074 77.4524C26.2074 77.4524 23.45 84.8759 24.1394 87.7105C24.7074 90.055 27.0989 91.4916 29.4755 90.914C31.8564 90.3342 33.316 87.9599 32.7457 85.6154C32.0585 82.7786 26.2074 77.4524 26.2074 77.4524Z" fill="#38A1E8"></path>
      <path fill-rule="evenodd" clip-rule="evenodd" d="M56.6877 76.4756C56.6877 76.4756 53.9302 83.8991 54.6196 86.7337C55.1877 89.0782 57.5792 90.5147 59.9557 89.9372C62.3366 89.3574 63.7962 86.9831 63.226 84.6386C62.5387 81.8018 56.6877 76.4756 56.6877 76.4756Z" fill="#38A1E8"></path>
      <path fill-rule="evenodd" clip-rule="evenodd" d="M74.7087 75.6431C74.7087 75.6431 71.9513 83.0665 72.6406 85.9012C73.2087 88.2457 75.6002 89.6822 77.9768 89.1046C80.3577 88.5249 81.8172 86.1506 81.247 83.8061C80.5598 80.9693 74.7087 75.6431 74.7087 75.6431Z" fill="#38A1E8"></path>
      <path fill-rule="evenodd" clip-rule="evenodd" d="M28.3457 65.8844H42.3734L41.633 63.8234C40.2947 60.0978 39.0798 56.7217 38.6968 55.6646C38.0585 53.8998 38.033 52.5272 38.6266 51.7003C39.1117 51.0225 39.8819 50.8818 40.0606 50.8818H44.3074C46.9691 50.8818 48.5947 53.5396 49.1755 55.8138C49.3564 56.5235 49.567 57.3398 49.7968 58.2328C50.7223 61.822 51.9904 66.739 52.8713 70.5733C53.4947 73.2865 52.8798 74.4225 52.5862 74.7849C52.3138 75.1216 51.9351 75.2836 51.4266 75.2836H36.8287L41.9393 89.879C42.1755 90.5504 42.1393 90.9212 42.0968 91.0385C41.9032 91.0662 41.2074 90.9063 40.5798 90.0048C37.6074 85.7314 30.1159 74.6804 26.8457 69.6483C26.0542 68.4292 25.8032 67.4253 26.1393 66.82C26.4457 66.2701 27.3521 65.8844 28.3457 65.8844Z" fill="#F9C900"></path>
      <path fill-rule="evenodd" clip-rule="evenodd" d="M88.073 33.89C94.2006 33.89 99.1857 38.9498 99.1857 45.1734C99.1857 51.3926 94.2006 56.4524 88.073 56.4524H39.756C32.0666 56.4524 25.8091 50.0989 25.8091 42.2896C25.8091 34.4804 32.0666 28.1269 39.756 28.1269C41.1879 28.1269 42.6113 28.3507 43.9815 28.7919L44.8772 29.0796L45.1921 28.1823C48.1453 19.7528 56.0368 14.0898 64.8283 14.0898C75.5772 14.0898 84.4985 22.2657 85.5815 33.11L85.6815 34.1138L86.6687 33.9902C87.2134 33.922 87.6602 33.89 88.073 33.89Z" fill="#D9D9D9"></path>
      <path fill-rule="evenodd" clip-rule="evenodd" d="M12.2764 31.6773C5.5083 31.6773 -0.000213623 37.2486 -0.000213623 44.0988C-0.000213623 50.9447 5.5083 56.5181 12.2764 56.5181H65.653C74.1508 56.5181 81.0615 49.523 81.0615 40.9252C81.0615 32.3274 74.1508 25.3323 65.653 25.3323C64.0721 25.3323 62.4998 25.5795 60.9849 26.0634L59.9977 26.3809L59.6487 25.392C56.387 16.1121 47.6679 9.87793 37.9551 9.87793C26.0806 9.87793 16.2253 18.8807 15.0296 30.8184L14.9189 31.9245L13.8296 31.7881C13.2253 31.7114 12.7317 31.6773 12.2764 31.6773Z" fill="white"></path>
    </g>
    <defs>
      <clipPath id="clip0_186_23">
        <rect width="100" height="83" fill="white" transform="translate(0 9)"></rect>
      </clipPath>
    </defs>
  </symbol>
  <symbol fill="none" xmlns="http://www.w3.org/2000/svg" viewBox="0 0 100 100" id="atmosphere">
    <g clip-path="url(#clip0_186_60)">
      <path fill-rule="evenodd" clip-rule="evenodd" d="M85.089 70.0569H14.5772C13.3937 70.0569 12.4356 69.0855 12.4356 67.8855C12.4356 66.6856 13.3937 65.7141 14.5772 65.7141H85.089C86.2725 65.7141 87.2306 66.6856 87.2306 67.8855C87.2306 69.0855 86.2725 70.0569 85.089 70.0569Z" fill="#F2F2F2"></path>
      <path fill-rule="evenodd" clip-rule="evenodd" d="M85.089 80.3704H14.5772C13.3937 80.3704 12.4356 79.3989 12.4356 78.199C12.4356 76.9991 13.3937 76.0276 14.5772 76.0276H85.089C86.2725 76.0276 87.2306 76.9991 87.2306 78.199C87.2306 79.3989 86.2725 80.3704 85.089 80.3704Z" fill="#F2F2F2"></path>
      <path fill-rule="evenodd" clip-rule="evenodd" d="M61.2094 90.1365H14.5763C13.3928 90.1365 12.4347 89.1651 12.4347 87.9651C12.4347 86.7652 13.3928 85.7937 14.5763 85.7937H61.2094C62.3928 85.7937 63.351 86.7652 63.351 87.9651C63.351 89.1651 62.3928 90.1365 61.2094 90.1365Z" fill="#F2F2F2"></path>
      <path fill-rule="evenodd" clip-rule="evenodd" d="M20.6217 33.5802C13.6632 33.5802 7.99978 39.378 7.99978 46.5066C7.99978 53.6308 13.6632 59.4309 20.6217 59.4309H75.4995C84.2363 59.4309 91.3413 52.1514 91.3413 43.2041C91.3413 34.2567 84.2363 26.9772 75.4995 26.9772C73.8742 26.9772 72.2576 27.2345 70.7001 27.738L69.6851 28.0685L69.3263 27.0393C65.9729 17.3822 57.0085 10.8945 47.0226 10.8945C34.8142 10.8945 24.6817 20.2633 23.4523 32.6863L23.3385 33.8375L22.2185 33.6955C21.5973 33.6157 21.0898 33.5802 20.6217 33.5802Z" fill="white"></path>
    </g>
    <defs>
      <clipPath id="clip0_186_60">
        <rect width="84" height="81" fill="white" transform="translate(8 10)"></rect>
      </clipPath>
    </defs>
  </symbol>
  <symbol fill="none" xmlns="http://www.w3.org/2000/svg" viewBox="0 0 100 100" id="rain">
    <g clip-path="url(#clip0_186_35)">
      <path fill-rule="evenodd" clip-rule="evenodd" d="M22.8704 61.8792C22.8704 61.8792 20.1431 69.1638 20.8249 71.9455C21.3868 74.2462 23.7521 75.6559 26.1027 75.0891C28.4575 74.5202 29.9011 72.1902 29.3371 69.8896C28.6574 67.1058 22.8704 61.8792 22.8704 61.8792Z" fill="#38A1E8"></path>
      <path fill-rule="evenodd" clip-rule="evenodd" d="M39.7304 61.5405C39.7304 61.5405 37.0032 68.8252 37.685 71.6069C38.2468 73.9076 40.6122 75.3172 42.9628 74.7504C45.3175 74.1815 46.7612 71.8516 46.1972 69.551C45.5175 66.7672 39.7304 61.5405 39.7304 61.5405Z" fill="#38A1E8"></path>
      <path fill-rule="evenodd" clip-rule="evenodd" d="M57.2498 61.189C57.2498 61.189 54.5225 68.4737 55.2043 71.2553C55.7662 73.556 58.1315 74.9657 60.4821 74.3989C62.8369 73.83 64.2805 71.5001 63.7165 69.1994C63.0368 66.4156 57.2498 61.189 57.2498 61.189Z" fill="#38A1E8"></path>
      <path fill-rule="evenodd" clip-rule="evenodd" d="M73.7534 60.3716C73.7534 60.3716 71.0261 67.6563 71.7079 70.438C72.2698 72.7386 74.6351 74.1483 76.9857 73.5815C79.3405 73.0126 80.7841 70.6827 80.2201 68.382C79.5404 65.5982 73.7534 60.3716 73.7534 60.3716Z" fill="#38A1E8"></path>
      <path fill-rule="evenodd" clip-rule="evenodd" d="M32.7609 77.2583C32.7609 77.2583 30.0337 84.543 30.7155 87.3247C31.2774 89.6253 33.6427 91.035 35.9933 90.4682C38.3481 89.8993 39.7917 87.5694 39.2277 85.2687C38.548 82.485 32.7609 77.2583 32.7609 77.2583Z" fill="#38A1E8"></path>
      <path fill-rule="evenodd" clip-rule="evenodd" d="M50.2803 76.9065C50.2803 76.9065 47.553 84.1912 48.2348 86.9729C48.7967 89.2735 51.162 90.6832 53.5126 90.1164C55.8674 89.5475 57.311 87.2176 56.7471 84.9169C56.0673 82.1331 50.2803 76.9065 50.2803 76.9065Z" fill="#38A1E8"></path>
      <path fill-rule="evenodd" clip-rule="evenodd" d="M66.7839 76.0891C66.7839 76.0891 64.0566 83.3738 64.7384 86.1555C65.3003 88.4561 67.6656 89.8658 70.0162 89.299C72.371 88.7301 73.8146 86.4002 73.2506 84.0996C72.5709 81.3158 66.7839 76.0891 66.7839 76.0891Z" fill="#38A1E8"></path>
      <path fill-rule="evenodd" clip-rule="evenodd" d="M88.9602 34.0865C95.0208 34.0865 99.9514 39.0517 99.9514 45.1589C99.9514 51.2619 95.0208 56.2271 88.9602 56.2271H41.1719C33.5667 56.2271 27.3777 49.9924 27.3777 42.3291C27.3777 34.6659 33.5667 28.4311 41.1719 28.4311C42.5882 28.4311 43.996 28.6507 45.3512 29.0837L46.2372 29.366L46.5486 28.4855C49.4695 20.2136 57.2746 14.6565 65.9699 14.6565C76.6012 14.6565 85.4249 22.6795 86.496 33.321L86.5949 34.3061L87.5713 34.1848C88.1101 34.1179 88.552 34.0865 88.9602 34.0865Z" fill="#D9D9D9"></path>
      <path fill-rule="evenodd" clip-rule="evenodd" d="M12.142 32.0413C5.44802 32.0413 -0.000213623 37.5084 -0.000213623 44.2305C-0.000213623 50.9484 5.44802 56.4177 12.142 56.4177H64.9345C73.3394 56.4177 80.1744 49.5534 80.1744 41.1163C80.1744 32.6792 73.3394 25.8149 64.9345 25.8149C63.371 25.8149 61.8159 26.0575 60.3175 26.5323L59.3411 26.8439L58.996 25.8734C55.77 16.767 47.1462 10.6494 37.5398 10.6494C25.7952 10.6494 16.0478 19.4839 14.8651 31.1984L14.7557 32.2839L13.6782 32.15C13.0806 32.0747 12.5924 32.0413 12.142 32.0413Z" fill="white"></path>
    </g>
    <defs>
      <clipPath id="clip0_186_35">
        <rect width="100" height="81" fill="white" transform="translate(0 10)"></rect>
      </clipPath>
    </defs>
  </symbol>
  <symbol fill="none" xmlns="http://www.w3.org/2000/svg" viewBox="0 0 100 100" id="snow">
    <path fill-rule="evenodd" clip-rule="evenodd" d="M81.8517 53.2616C81.7039 52.6864 81.3401 52.2021 80.8239 51.8997C80.3101 51.595 79.7053 51.5109 79.1232 51.6587L64.5648 55.5603L54.9357 50.0011L64.5648 44.4397L79.1573 48.3482C80.3578 48.6233 81.5402 47.923 81.8471 46.7566C82.0063 46.1745 81.9267 45.5674 81.6243 45.0468C81.3219 44.5261 80.8399 44.16 80.2714 44.0145L70.0512 41.2725L79.9804 35.545C81.0331 34.9061 81.3833 33.5715 80.7739 32.5051C80.1623 31.4342 78.7867 31.0613 77.7135 31.6752L67.8162 37.3981L70.556 27.171C70.706 26.5981 70.6174 25.9774 70.3172 25.4658C70.0126 24.9497 69.5283 24.5859 68.953 24.4381C67.7798 24.1379 66.5588 24.8473 66.2314 26.0228L62.3321 40.5653L52.703 46.1268V35.0039L63.3575 24.3517C64.2101 23.4831 64.2078 22.0689 63.3529 21.1958C62.93 20.7706 62.3662 20.5364 61.7659 20.5364C61.1679 20.5364 60.6063 20.7706 60.1834 21.1935L52.703 28.674V17.2328C52.703 16.0027 51.6957 15 50.4589 15C49.2265 15 48.2261 16.0027 48.2261 17.2328V28.674L40.7479 21.1958C40.325 20.7706 39.7612 20.5364 39.1609 20.5364C38.5629 20.5364 37.9991 20.7729 37.5693 21.2026C36.719 22.0712 36.7235 23.4854 37.5784 24.3585L48.2261 35.0039V46.1268L38.5948 40.5653L34.6931 26.0092C34.368 24.8428 33.1493 24.1379 31.9761 24.4381C30.7824 24.7427 30.0639 25.9728 30.3708 27.1801L33.1129 37.4004L23.1996 31.6729C22.1264 31.0613 20.785 31.4251 20.1438 32.5051C19.5322 33.5783 19.896 34.9198 20.9737 35.5587L30.8779 41.2725L20.6781 44.01C20.1006 44.1555 19.614 44.517 19.3116 45.0309C19.0069 45.5447 18.9205 46.1745 19.0752 46.7634C19.3457 47.7343 20.2325 48.4096 21.2306 48.4096C21.4193 48.4096 21.6035 48.3868 21.8172 48.3368L36.3529 44.4397L45.9911 50.0011L36.362 55.5603L21.8081 51.6609C21.2352 51.5109 20.6099 51.5973 20.0983 51.9019C19.5913 52.2021 19.2207 52.6909 19.0843 53.2366C18.9228 53.8141 19.0001 54.4189 19.3003 54.9441C19.5981 55.4603 20.0915 55.84 20.6576 55.9878L30.8779 58.7275L20.96 64.4504C19.896 65.0802 19.5344 66.449 20.1552 67.4949C20.5576 68.1975 21.2852 68.6181 22.0992 68.6181C22.4902 68.6181 22.8745 68.518 23.2155 68.3248L33.122 62.5996L30.3845 72.813C30.2253 73.3883 30.3049 73.9954 30.6073 74.5183C30.9029 75.0299 31.3781 75.3982 31.9374 75.5506C32.1307 75.6097 32.3285 75.637 32.5445 75.637C33.5358 75.637 34.4248 74.9571 34.709 73.9772L38.597 59.4324L48.2261 53.8732V64.9961L37.5875 75.6415C36.7144 76.5146 36.7144 77.9334 37.5875 78.8065C38.0104 79.2294 38.572 79.4636 39.1745 79.4636C39.7748 79.4613 40.3341 79.2294 40.7548 78.8065L48.2261 71.3283V82.7672C48.2261 83.9996 49.2311 85 50.468 85C51.7003 85 52.703 83.9996 52.703 82.7672V71.326L60.1789 78.8019C60.6018 79.2294 61.1656 79.4636 61.7614 79.4636C62.3662 79.4636 62.93 79.2294 63.3484 78.8065C64.2215 77.9334 64.2215 76.5146 63.3484 75.6415L52.703 64.9961V53.8755L62.3321 59.4438L66.2269 73.9954C66.4997 74.9617 67.3865 75.637 68.3846 75.637C68.5983 75.637 68.7961 75.6097 68.9826 75.5528C69.551 75.4005 70.0262 75.0344 70.3218 74.5251C70.6219 74.009 70.7038 73.3883 70.5469 72.8199L67.8071 62.6087L77.7249 68.3316C78.066 68.5249 78.4479 68.6249 78.8299 68.6249C79.6371 68.6249 80.3601 68.2065 80.7694 67.504C81.3833 66.449 81.0195 65.0757 79.9554 64.4413L70.0512 58.7275L80.2623 55.99C80.8421 55.8377 81.3264 55.4671 81.6288 54.9441C81.9244 54.428 82.0063 53.8141 81.8517 53.2616Z" fill="#4FB4ED"></path>
  </symbol>
  <symbol fill="none" xmlns="http://www.w3.org/2000/svg" viewBox="0 0 100 100" id="clear">
    <path fill-rule="evenodd" clip-rule="evenodd" d="M50.5777 35.0601C59.2093 35.0667 66.2006 42.0673 66.1939 50.6967C66.1872 59.326 59.1849 66.3154 50.5532 66.3088C41.9215 66.3021 34.9302 59.3016 34.9369 50.6722C34.9436 42.0428 41.946 35.0534 50.5777 35.0601Z" fill="#F9C900"></path>
    <path fill-rule="evenodd" clip-rule="evenodd" d="M46.851 71.5247C46.851 71.7117 46.8265 71.903 46.7754 72.0922L44.1823 81.7385C43.8684 82.9067 42.6665 83.601 41.498 83.2872C40.3294 82.9735 39.635 81.7719 39.951 80.6014L42.5441 70.9551C42.8579 69.7868 44.0599 69.0948 45.2284 69.4086C46.2078 69.6711 46.851 70.5568 46.851 71.5247Z" fill="#F9C900"></path>
    <path fill-rule="evenodd" clip-rule="evenodd" d="M35.9944 67.5643C35.9944 68.154 35.7563 68.7437 35.2888 69.1754L27.9415 75.9423C27.0511 76.7634 25.6645 76.7055 24.8454 75.8154C24.024 74.9276 24.0797 73.5413 24.97 72.7201L32.3174 65.951C33.2077 65.1322 34.5944 65.19 35.4135 66.0779C35.803 66.5007 35.9944 67.0325 35.9944 67.5643Z" fill="#F9C900"></path>
    <path fill-rule="evenodd" clip-rule="evenodd" d="M30.0564 56.9286C30.0564 57.9032 29.3998 58.7911 28.4138 59.047L18.7404 61.5459C17.5674 61.8485 16.3721 61.1454 16.0694 59.9727C15.7667 58.8022 16.4701 57.6073 17.6431 57.3046L27.3164 54.8035C28.4872 54.5009 29.6825 55.2063 29.9852 56.3767C30.0341 56.5614 30.0564 56.7461 30.0564 56.9286Z" fill="#F9C900"></path>
    <path fill-rule="evenodd" clip-rule="evenodd" d="M30.364 44.6558C30.364 44.8361 30.3418 45.0185 30.295 45.201C29.9923 46.3737 28.7971 47.0791 27.6263 46.7765L17.9507 44.2864C16.7777 43.986 16.0721 42.7911 16.3748 41.6206C16.6753 40.448 17.8706 39.7426 19.0436 40.0452L28.7192 42.5352C29.7074 42.7889 30.364 43.679 30.364 44.6558Z" fill="#F9C900"></path>
    <path fill-rule="evenodd" clip-rule="evenodd" d="M35.9403 33.9891C35.9403 34.5365 35.7356 35.0861 35.3238 35.5112C34.4824 36.379 33.0935 36.4035 32.2255 35.5601L25.0472 28.613C24.1792 27.7719 24.1547 26.3833 24.9983 25.5155C25.8396 24.6454 27.2263 24.6232 28.0966 25.4643L35.2726 32.4137C35.7177 32.8431 35.9403 33.415 35.9403 33.9891Z" fill="#F9C900"></path>
    <path fill-rule="evenodd" clip-rule="evenodd" d="M46.1198 27.8985C46.1198 28.8776 45.4565 29.7699 44.4638 30.0191C43.2908 30.3151 42.1 29.603 41.804 28.4303L39.3623 18.744C39.0663 17.5691 39.7785 16.3808 40.9515 16.0848C42.1245 15.7889 43.3153 16.501 43.6114 17.6736L46.0531 27.36C46.0976 27.5402 46.1198 27.7205 46.1198 27.8985Z" fill="#F9C900"></path>
    <path fill-rule="evenodd" clip-rule="evenodd" d="M60.789 18.9263C60.789 19.111 60.7645 19.298 60.7156 19.4826L58.1759 29.1445C57.8688 30.3128 56.6713 31.0137 55.5005 30.7044C54.3297 30.3973 53.6308 29.1979 53.938 28.0297L56.4776 18.37C56.7848 17.1996 57.9845 16.5009 59.1553 16.8079C60.1391 17.0661 60.789 17.9539 60.789 18.9263Z" fill="#F9C900"></path>
    <path fill-rule="evenodd" clip-rule="evenodd" d="M76.6779 27.267C76.6779 27.8789 76.422 28.4864 75.9256 28.9181L68.3868 35.4758C67.4742 36.268 66.0898 36.1723 65.2952 35.26C64.5006 34.3476 64.5963 32.9635 65.5111 32.1691L73.0477 25.6137C73.9625 24.8193 75.3447 24.9149 76.1393 25.8273C76.5021 26.2434 76.6779 26.7574 76.6779 27.267Z" fill="#F9C900"></path>
    <path fill-rule="evenodd" clip-rule="evenodd" d="M84.4471 41.8865C84.4471 42.8478 83.8083 43.7289 82.8356 43.996L73.2001 46.6395C72.0338 46.9599 70.8274 46.2724 70.5069 45.1063C70.1864 43.9381 70.8741 42.7343 72.0405 42.4138L81.676 39.7703C82.8423 39.4521 84.0487 40.1374 84.3692 41.3035C84.4226 41.4993 84.4471 41.6951 84.4471 41.8865Z" fill="#F9C900"></path>
    <path fill-rule="evenodd" clip-rule="evenodd" d="M84.2815 58.9652C84.2815 59.1454 84.2592 59.3279 84.2125 59.5103C83.9098 60.683 82.7145 61.3884 81.5438 61.0858L71.8682 58.5958C70.6952 58.2954 69.9896 57.1004 70.2923 55.93C70.5928 54.7573 71.7881 54.0519 72.9611 54.3545L82.6366 56.8445C83.6249 57.0982 84.2815 57.9883 84.2815 58.9652Z" fill="#F9C900"></path>
    <path fill-rule="evenodd" clip-rule="evenodd" d="M76.099 74.0064C76.099 74.5738 75.8786 75.1435 75.4402 75.5707C74.5743 76.4163 73.1876 76.4007 72.3418 75.5351L65.3573 68.3944C64.5115 67.5288 64.5248 66.1425 65.3906 65.2969C66.2565 64.4513 67.6432 64.4669 68.489 65.3303L75.4735 72.4732C75.892 72.9005 76.099 73.4523 76.099 74.0064Z" fill="#F9C900"></path>
    <path fill-rule="evenodd" clip-rule="evenodd" d="M61.0141 82.0848C61.0141 83.0506 60.3686 83.934 59.3914 84.1965C58.2229 84.5125 57.021 83.8205 56.7071 82.6522L54.1074 73.0082C53.7913 71.8399 54.4835 70.6361 55.6521 70.3223C56.8206 70.0063 58.0226 70.6984 58.3386 71.8666L60.9384 81.5129C60.9896 81.7043 61.0141 81.8957 61.0141 82.0848Z" fill="#F9C900"></path>
  </symbol>
  <symbol fill="none" xmlns="http://www.w3.org/2000/svg" viewBox="0 0 101 100" id="clouds">
    <g clip-path="url(#clip0_186_67)">
      <path fill-rule="evenodd" clip-rule="evenodd" d="M33.4941 34.3313C41.8558 34.3376 48.6281 41.077 48.6217 49.3849C48.6153 57.6928 41.8324 64.4216 33.4707 64.4152C25.1089 64.4089 18.3366 57.6695 18.343 49.3616C18.3494 41.0537 25.1324 34.325 33.4941 34.3313Z" fill="#F9C900"></path>
      <path fill-rule="evenodd" clip-rule="evenodd" d="M29.8843 69.4353C29.8843 69.6171 29.8608 69.7989 29.8119 69.9828L27.2991 79.2695C26.9949 80.3941 25.8311 81.06 24.6991 80.7577C23.5651 80.4554 22.8949 79.2991 23.1991 78.1744L25.7119 68.8878C26.0162 67.7631 27.18 67.0972 28.3119 67.3974C29.2608 67.6511 29.8843 68.5051 29.8843 69.4353Z" fill="#F9C900"></path>
      <path fill-rule="evenodd" clip-rule="evenodd" d="M19.3677 65.6228C19.3677 66.1915 19.1379 66.758 18.6826 67.1724L11.5655 73.6897C10.7038 74.4783 9.36129 74.4233 8.56767 73.5671C7.77193 72.711 7.82725 71.3771 8.68895 70.5864L15.806 64.0712C16.6698 63.2827 18.0124 63.3355 18.806 64.1938C19.1826 64.5976 19.3677 65.1112 19.3677 65.6228Z" fill="#F9C900"></path>
      <mask id="mask0_186_67" maskUnits="userSpaceOnUse" x="0" y="53" width="14" height="7">
        <path fill-rule="evenodd" clip-rule="evenodd" d="M0 53.2717V59.8971H13.616V53.2717L0 53.2717L0 53.2717Z" fill="white"></path>
      </mask>
      <g mask="url(#mask0_186_67)">
        <path fill-rule="evenodd" clip-rule="evenodd" d="M13.616 55.3837C13.616 56.3223 12.9798 57.1764 12.0245 57.4216L2.65426 59.8294C1.52022 60.1212 0.360642 59.4426 0.0670254 58.3158C-0.224464 57.1891 0.456387 56.037 1.59256 55.7452L10.9628 53.3395C12.0968 53.0478 13.2543 53.7243 13.5479 54.8531C13.5947 55.0307 13.616 55.2083 13.616 55.3837Z" fill="#F9C900"></path>
      </g>
      <path fill-rule="evenodd" clip-rule="evenodd" d="M13.9138 43.5692C13.9138 43.7425 13.8925 43.918 13.8457 44.0955C13.5543 45.2223 12.3968 45.9009 11.2628 45.6112L1.88829 43.214C0.754251 42.9244 0.0712725 41.7723 0.362762 40.6455C0.654251 39.5188 1.8117 38.8402 2.94787 39.1298L12.3202 41.5271C13.2777 41.7723 13.9138 42.6284 13.9138 43.5692Z" fill="#F9C900"></path>
      <path fill-rule="evenodd" clip-rule="evenodd" d="M19.3153 33.3004C19.3153 33.8289 19.1175 34.3574 18.7175 34.7654C17.9026 35.6025 16.5579 35.6237 15.7153 34.814L8.76427 28.1233C7.92172 27.3137 7.90044 25.9798 8.71533 25.1426C9.53023 24.3055 10.8749 24.2843 11.7175 25.094L18.6685 31.7826C19.1004 32.1969 19.3153 32.7487 19.3153 33.3004Z" fill="#F9C900"></path>
      <path fill-rule="evenodd" clip-rule="evenodd" d="M29.1759 27.4368C29.1759 28.3797 28.5334 29.2379 27.5717 29.4789C26.4355 29.7643 25.2802 29.0794 24.9951 27.9484L22.6291 18.6237C22.344 17.4927 23.0334 16.349 24.1696 16.0637C25.3057 15.7804 26.4611 16.4653 26.7462 17.5942L29.1121 26.9189C29.1547 27.0922 29.1759 27.2656 29.1759 27.4368Z" fill="#F9C900"></path>
      <path fill-rule="evenodd" clip-rule="evenodd" d="M43.3853 18.7993C43.3853 18.9769 43.3619 19.1566 43.3151 19.3363L40.8555 28.6357C40.5576 29.7624 39.3959 30.4346 38.2619 30.1387C37.13 29.8427 36.4513 28.6885 36.7491 27.5639L39.2087 18.2624C39.5066 17.1378 40.6683 16.4634 41.8023 16.7594C42.7555 17.0088 43.3853 17.8629 43.3853 18.7993Z" fill="#F9C900"></path>
      <path fill-rule="evenodd" clip-rule="evenodd" d="M58.7764 26.8291C58.7764 27.4168 58.5296 28.0024 58.0466 28.4188L50.7445 34.7311C49.8615 35.4943 48.5189 35.4013 47.7508 34.524C46.9806 33.6446 47.0742 32.3127 47.9593 31.5475L55.2615 25.2373C56.1445 24.472 57.4849 24.565 58.2551 25.4445C58.6062 25.844 58.7764 26.3387 58.7764 26.8291Z" fill="#F9C900"></path>
      <path fill-rule="evenodd" clip-rule="evenodd" d="M66.3019 40.903C66.3019 41.8289 65.6828 42.6766 64.7402 42.9345L55.4083 45.4776C54.2764 45.7863 53.1083 45.1267 52.7998 44.0021C52.4891 42.8774 53.153 41.719 54.2849 41.4103L63.6168 38.8672C64.7487 38.5586 65.9147 39.2181 66.2253 40.3428C66.2764 40.5288 66.3019 40.7169 66.3019 40.903Z" fill="#F9C900"></path>
      <path fill-rule="evenodd" clip-rule="evenodd" d="M66.1415 57.3443C66.1415 57.5176 66.1202 57.6931 66.0734 57.8707C65.7819 58.9974 64.6245 59.676 63.4904 59.3864L54.116 56.9892C52.9819 56.6995 52.2968 55.5495 52.5904 54.4207C52.8819 53.2939 54.0394 52.6153 55.1755 52.905L64.5479 55.3022C65.5053 55.5474 66.1415 56.4036 66.1415 57.3443Z" fill="#F9C900"></path>
      <path fill-rule="evenodd" clip-rule="evenodd" d="M58.2155 71.8243C58.2155 72.3718 58.0028 72.9172 57.5772 73.3294C56.7389 74.1454 55.3943 74.1306 54.5751 73.2977L47.8092 66.4209C46.99 65.588 47.0049 64.2541 47.8432 63.4403C48.6815 62.6243 50.0262 62.6391 50.8453 63.472L57.6113 70.3487C58.0155 70.7588 58.2155 71.2915 58.2155 71.8243Z" fill="#F9C900"></path>
      <path fill-rule="evenodd" clip-rule="evenodd" d="M43.6032 79.601C43.6032 80.5312 42.9798 81.381 42.033 81.6347C40.9011 81.9369 39.7351 81.271 39.4309 80.1464L36.9117 70.8619C36.6075 69.7372 37.2777 68.5809 38.4096 68.2765C39.5415 67.9742 40.7075 68.6401 41.0117 69.7647L43.5287 79.0493C43.5798 79.2332 43.6032 79.4192 43.6032 79.601Z" fill="#F9C900"></path>
      <mask id="mask1_186_67" maskUnits="userSpaceOnUse" x="18" y="35" width="82" height="48">
        <path fill-rule="evenodd" clip-rule="evenodd" d="M18.1161 82.2365H99.1778V35.9773H18.1161V82.2365Z" fill="white"></path>
      </mask>
      <g mask="url(#mask1_186_67)">
        <path fill-rule="evenodd" clip-rule="evenodd" d="M30.3927 57.599C23.6247 57.599 18.1161 63.1249 18.1161 69.9192C18.1161 76.7093 23.6247 82.2373 30.3927 82.2373H83.7693C92.2672 82.2373 99.1778 75.2993 99.1778 66.7715C99.1778 58.2437 92.2672 51.3057 83.7693 51.3057C82.1885 51.3057 80.6161 51.5509 79.1013 52.0308L78.114 52.3458L77.7651 51.3649C74.5034 42.1607 65.7842 35.9773 56.0715 35.9773C44.197 35.9773 34.3417 44.9067 33.1459 56.7471L33.0353 57.8442L31.9459 57.7089C31.3417 57.6328 30.8481 57.599 30.3927 57.599Z" fill="white"></path>
      </g>
    </g>
    <defs>
      <clipPath id="clip0_186_67">
        <rect width="101" height="67" fill="white" transform="translate(0 16)"></rect>
      </clipPath>
    </defs>
  </symbol>
</svg>